<?xml version="1.0" encoding="UTF-8"?>
<!DOCTYPE svg PUBLIC "-//W3C//DTD SVG 1.1//EN" "http://www.w3.org/Graphics/SVG/1.1/DTD/svg11.dtd">
<!-- Creator: CorelDRAW 2019 (64-Bit) -->
<svg xmlns="http://www.w3.org/2000/svg" xml:space="preserve" width="11.6929in" height="8.26772in" version="1.1" style="shape-rendering:geometricPrecision; text-rendering:geometricPrecision; image-rendering:optimizeQuality; fill-rule:evenodd; clip-rule:evenodd"
viewBox="0 0 11692.91 8267.72"
 xmlns:xlink="http://www.w3.org/1999/xlink"
 xmlns:xodm="http://www.corel.com/coreldraw/odm/2003">
 <defs>
  <style type="text/css">
   <![CDATA[
    .fil0 {fill:url(#id0);fill-rule:nonzero}
   ]]>
  </style>
  <linearGradient id="id0" gradientUnits="userSpaceOnUse" x1="5849.26" y1="4918.51" x2="5821.91" y2="5483.02">
   <stop offset="0" style="stop-opacity:1; stop-color:#F6F4FE"/>
   <stop offset="0.0705882" style="stop-opacity:1; stop-color:whitesmoke"/>
   <stop offset="0.909804" style="stop-opacity:1; stop-color:#E75168"/>
   <stop offset="1" style="stop-opacity:1; stop-color:#E75168"/>
  </linearGradient>
 </defs>
 <g id="Layer_x0020_1">
  <metadata id="CorelCorpID_0Corel-Layer"/>
  <path class="fil0" d="M8796.1 5443.94c-2.74,-1.64 -4.92,-5.47 -7.66,-5.47 -13.68,-0.54 -27.35,0.55 -41.03,-0.54 -36.65,-1.64 -73.85,-1.64 -110.5,-6.02 -36.65,-4.37 -72.76,-7.66 -109.41,-10.94 -33.37,-3.28 -66.19,-10.94 -99.56,-15.87 -28.99,-4.37 -58.53,-6.56 -87.52,-11.48 -38.29,-6.57 -76.58,-13.13 -114.33,-21.88 -49.78,-11.48 -99.01,-25.16 -148.24,-37.74 -19.69,-4.92 -38.84,-10.94 -58.53,-16.41 -66.19,-17.5 -131.83,-37.74 -198.02,-56.34 -64.55,-18.05 -129.1,-35.01 -193.65,-51.97 -61.27,-16.41 -124.18,-26.8 -185.99,-39.93 -42.12,-8.76 -84.24,-18.6 -126.91,-26.81 -26.8,-4.92 -54.7,-9.85 -82.06,-10.39 -10.39,-0.55 -14.22,-13.13 -25.71,-8.2 -8.75,3.83 -18.6,1.09 -28.44,-2.19 -14.22,-4.92 -29.54,-4.92 -44.85,-6.56 -20.24,-2.19 -42.12,0 -61.27,-6.57 -21.88,-7.66 -45.41,1.64 -65.65,-9.85 -0.55,-0.54 -1.64,0 -2.74,0 -26.8,-1.64 -53.61,-3.28 -80.41,-5.47 -15.86,-1.09 -31.72,-3.83 -47.59,-5.47 -15.31,-1.09 -30.63,2.74 -44.86,-5.47 -2.19,-1.09 -5.47,0 -8.2,0 -77.68,-2.74 -155.9,-7.66 -233.58,-6.02 -18.6,0.55 -37.74,-6.56 -55.8,-4.37 -68.93,8.76 -137.85,2.19 -206.23,5.47 -13.68,0.55 -26.81,0.55 -40.48,1.64 -14.22,0.55 -28.44,1.64 -42.67,3.83 -40.48,6.02 -82.06,7.11 -122.54,12.03 -19.69,2.74 -40.48,1.64 -60.17,8.76 -14.22,4.92 -31.73,3.28 -47.59,5.47 -36.1,5.47 -71.66,11.48 -107.76,16.96 -35.01,5.47 -71.11,7.11 -106.13,11.49 -15.86,2.19 -31.18,5.47 -46.5,9.3 -15.86,3.83 -31.72,0 -47.59,5.47 -16.96,6.02 -37.2,4.37 -55.8,6.56 -10.39,1.09 -20.79,3.83 -31.18,5.47 -10.39,1.09 -20.79,1.09 -31.73,4.37 -15.87,4.92 -33.37,1.64 -50.33,6.02 -20.78,4.92 -42.67,3.83 -64,6.56 -10.39,1.09 -20.79,3.28 -31.18,5.47 -9.3,1.64 -19.15,3.28 -28.44,4.92 -3.83,0.55 -7.11,0.55 -10.94,0.55 -28.44,0 -56.35,6.02 -84.79,10.39 -24.61,3.83 -49.78,4.37 -74.94,6.02 -29.54,1.64 -58.54,4.92 -87.53,10.39 -17.5,3.28 -35.56,1.64 -53.06,4.92 -26.26,5.47 -54.16,1.64 -80.41,7.11 -26.26,5.47 -53.61,-0.55 -79.32,9.85 -1.64,0.55 -3.83,0 -5.47,0 -30.63,1.64 -61.27,1.09 -91.35,6.02 -28.44,4.92 -57.44,0 -84.79,9.85 -1.64,0.55 -3.83,0 -5.47,0 -36.65,1.64 -73.85,3.28 -110.5,5.47 -16.96,1.09 -33.92,3.83 -50.33,5.47 -15.87,1.64 -32.82,-3.28 -47.59,5.47 -1.64,0.55 -3.83,0 -5.47,0 -44.86,1.64 -90.26,1.64 -135.12,6.02 -33.37,3.28 -67.28,0.55 -99.56,6.02 -30.63,4.93 -61.27,1.09 -91.9,4.93 -47.59,6.02 -95.73,1.09 -143.32,6.02 -96.28,9.3 -192.55,2.19 -288.28,4.37 -53.06,1.09 -105.57,1.09 -158.64,0 -59.63,-1.09 -119.8,-1.09 -178.88,-6.56 -26.8,-2.19 -54.16,-2.19 -80.41,-4.92 -41.57,-4.38 -83.69,-8.2 -125.81,-11.49 -33.92,-2.74 -67.28,-6.56 -101.2,-10.94 -33.37,-4.37 -67.28,-5.47 -100.11,-14.77 -17.5,-4.92 -37.2,-3.83 -55.8,-6.56 -26.26,-3.83 -52.52,-7.66 -78.77,-12.58 -24.07,-4.38 -48.14,-9.85 -72.76,-14.77 -37.74,-7.66 -76.04,-14.77 -113.78,-24.07 -40.48,-9.3 -80.41,-20.24 -120.35,-30.63 -67.28,-18.05 -134.02,-36.65 -198.57,-62.91 -54.16,-21.88 -108.86,-41.03 -161.92,-65.1 -46.5,-18.6 -88.07,-44.31 -131.83,-66.19 -39.93,-20.24 -76.58,-44.31 -113.24,-70.02 -32.27,-22.43 -65.1,-43.76 -93.54,-71.66 -16.96,-16.41 -35.01,-31.18 -51.96,-47.04 -39.39,-37.2 -76.59,-76.58 -105.58,-125.27 9.85,-8.75 18.06,-21.33 35.01,-11.48 2.19,1.09 4.92,1.64 7.66,1.64 38.84,1.64 77.13,3.83 115.97,5.47 35.01,1.64 70.02,4.37 105.03,6.56 22.43,1.64 44.86,0.55 66.74,4.38 30.64,5.47 61.81,1.09 91.35,6.02 23.52,3.83 47.05,1.09 69.47,4.93 29.54,5.47 59.63,1.09 88.62,6.02 25.16,4.38 51.42,-0.55 74.94,5.47 33.91,8.75 68.38,-2.19 101.2,9.85 1.64,0.55 3.83,0 5.47,0 42.12,1.64 84.79,1.09 126.91,6.02 30.63,3.83 61.27,1.09 91.35,6.02 22.43,3.83 44.86,1.09 66.74,4.93 30.64,5.47 61.27,1.09 91.35,6.02 22.43,3.83 44.86,1.09 66.74,4.92 30.63,5.47 61.81,1.09 91.35,6.02 23.52,3.83 47.04,1.09 69.47,4.92 29.54,5.47 59.63,1.09 88.62,6.02 25.16,4.37 51.42,-0.55 74.94,5.47 33.92,8.2 68.38,-2.19 101.2,9.85 1.64,0.54 3.83,0 5.47,0 42.12,1.64 84.79,1.09 126.91,6.02 30.64,3.83 61.27,1.09 91.35,6.02 22.43,3.83 44.86,1.09 66.74,4.92 30.63,5.47 61.81,1.09 91.35,6.02 23.52,3.83 47.04,1.09 69.47,4.92 29.54,5.47 59.63,1.09 88.62,6.02 23.52,3.83 47.04,1.09 69.47,4.93 29.54,5.47 59.62,1.09 88.61,6.02 25.17,4.38 51.42,-0.55 74.94,5.47 33.92,8.2 68.38,-2.19 101.2,9.85 1.64,0.55 3.83,0 5.47,0 42.12,1.64 84.79,1.09 126.91,6.02 30.63,3.83 61.27,1.09 91.35,6.02 22.43,3.83 44.85,1.09 66.74,4.92 30.63,5.47 61.81,1.09 91.35,6.02 23.52,3.83 47.04,1.09 69.47,4.92 29.54,5.47 59.62,1.09 88.61,6.02 23.52,3.83 47.05,1.09 69.47,4.92 29.54,5.47 59.63,1.09 88.62,6.02 25.16,4.37 51.42,-0.55 74.94,5.47 33.92,8.2 68.38,-2.19 101.2,9.85 1.64,0.54 3.83,0 5.47,0 42.12,1.64 84.79,1.09 126.91,6.02 30.63,3.83 61.27,1.09 91.35,6.02 22.43,3.83 44.85,1.09 66.74,4.92 30.63,5.47 61.81,1.09 91.35,6.02 23.52,3.83 47.05,1.09 69.47,4.93 29.54,5.47 59.63,1.09 88.62,6.02 23.52,3.83 47.05,1.09 69.47,4.92 29.54,5.47 59.63,1.09 88.62,6.02 25.16,4.37 50.87,-0.55 74.94,5.47 33.91,8.2 68.38,-2.19 101.2,9.85 1.64,0.55 3.83,0 5.47,0 42.12,1.64 84.79,1.09 126.91,6.02 30.63,3.83 61.27,1.09 91.35,6.02 22.43,3.83 44.86,1.09 66.74,4.92 30.64,5.47 61.81,1.09 91.35,6.02 23.52,3.83 47.05,1.09 69.47,4.92 29.54,5.47 59.63,1.09 88.62,6.02 23.52,3.83 47.04,1.09 69.47,4.92 29.54,5.47 59.63,1.09 88.62,6.02 25.16,4.37 50.87,-0.55 74.94,5.47 33.92,8.2 68.38,-2.19 101.2,9.85 1.64,0.55 3.83,0 5.47,0 42.12,1.64 84.79,1.09 126.91,6.02 30.64,3.83 61.27,1.09 91.35,6.02 22.43,3.83 44.86,1.09 66.74,4.92 30.63,5.47 61.81,1.09 91.35,6.02 23.52,3.83 47.04,1.09 69.47,4.93 29.54,5.47 59.63,1.09 88.62,6.02 23.52,3.83 47.04,1.09 69.47,4.92 29.54,5.47 59.62,1.09 88.61,6.02 25.17,4.37 51.42,-0.55 74.94,5.47 33.92,8.2 68.38,-2.19 101.2,9.85 1.64,0.55 3.83,0 5.47,0 42.12,1.64 84.79,1.09 126.91,6.02 30.63,3.83 61.27,1.09 91.35,6.02 22.43,3.83 44.85,1.09 66.74,4.92 30.63,5.47 61.81,1.09 91.35,6.02 23.52,3.83 47.04,1.09 69.47,4.92 29.54,5.47 59.62,1.09 88.61,6.02 23.52,3.83 47.05,1.09 69.47,4.92 29.54,5.47 59.63,1.09 88.62,6.02 25.16,4.38 51.42,-0.54 74.94,5.47 33.92,8.2 68.38,-2.19 101.2,9.85 1.64,0.55 3.83,0 5.47,0 42.12,1.64 84.79,1.09 126.91,6.02 30.63,3.83 61.27,1.09 91.35,6.02 22.43,3.83 44.85,1.09 66.74,4.92 30.63,5.47 61.81,1.09 91.35,6.02 23.52,3.83 47.05,1.09 69.47,4.93 29.54,5.47 59.63,1.09 88.62,6.02 23.52,3.83 47.05,1.09 69.47,4.92 29.54,5.47 59.63,1.09 88.62,6.02 25.16,4.37 51.42,-0.55 74.94,5.47 33.91,8.2 68.38,-2.19 101.2,9.85 1.64,0.55 3.83,0 5.47,0 42.12,1.64 84.79,1.09 126.91,6.02 30.63,3.83 61.27,1.09 91.35,6.02 22.43,3.83 44.86,1.09 66.74,4.92 30.64,5.47 61.27,2.19 91.35,6.02 18.05,2.19 35.56,4.92 53.06,4.37 13.67,-0.55 21.88,5.47 28.44,18.6 -6.57,4.37 -12.58,9.3 -19.15,13.13 -44.31,27.9 -89.71,53.61 -137.85,74.39 -48.14,20.79 -96.83,37.74 -146.6,53.06 -42.12,13.13 -84.24,24.61 -127.46,33.37 -33.92,6.56 -67.83,11.48 -102.29,16.41 -28.99,3.83 -57.99,7.66 -87.52,10.94 -36.65,4.37 -72.76,7.11 -109.41,11.48 -35.56,4.38 -70.02,3.28 -105.57,4.38 -2.74,0 -5.47,3.28 -7.66,5.47 -97.91,-0.02 -205.12,-0.02 -312.89,-0.02z"/>
 </g>
</svg>
