<?xml version="1.0" encoding="UTF-8"?>
<svg version="1.1" xmlns="http://www.w3.org/2000/svg" width="2464" height="243">
<path d="M0 0 C2.78089755 0.22127416 5.55055274 0.40694626 8.33520508 0.55664062 C9.57523537 0.62760201 9.57523537 0.62760201 10.84031677 0.69999695 C12.63044749 0.80196379 14.42067249 0.90228596 16.21097755 1.00114441 C19.04918429 1.15788762 21.88711814 1.31893914 24.72502136 1.4810791 C30.75395983 1.82469042 36.78321825 2.16247533 42.8125 2.5 C49.7911778 2.89141999 56.76971118 3.28524173 63.74802208 3.68315125 C66.53516266 3.84109403 69.32247664 3.99566241 72.1098175 4.15002441 C73.83209054 4.24765419 75.55435558 4.34542516 77.27661133 4.44335938 C78.04415741 4.48494675 78.81170349 4.52653412 79.60250854 4.56938171 C84.4392923 4.84866324 89.19573261 5.37467287 94 6 C95.35520553 6.11319591 96.71190492 6.21205887 98.07006836 6.28125 C98.76116196 6.31798828 99.45225555 6.35472656 100.16429138 6.39257812 C101.2411898 6.44575195 101.2411898 6.44575195 102.33984375 6.5 C103.10623672 6.54060547 103.8726297 6.58121094 104.6622467 6.62304688 C107.08719847 6.75141079 109.5123143 6.87614014 111.9375 7 C129.80757375 7.91467337 129.80757375 7.91467337 135.03515625 8.53515625 C139.52819542 9.06192636 143.98245508 9.2652524 148.5 9.4375 C156.82696846 9.79503017 165.12923843 10.33828544 173.4375 11 C174.49710938 11.08306396 175.55671875 11.16612793 176.6484375 11.25170898 C184.30684324 11.87820501 184.30684324 11.87820501 188.0234375 12.53125 C193.69882054 13.42501111 199.47385008 13.4052766 205.20898438 13.60546875 C206.16482422 13.64285156 207.12066406 13.68023437 208.10546875 13.71875 C208.97324951 13.74904297 209.84103027 13.77933594 210.73510742 13.81054688 C213 14 213 14 216 15 C217.9076263 15.12801532 219.81906024 15.2020083 221.73046875 15.24609375 C222.90891357 15.27751465 224.0873584 15.30893555 225.30151367 15.34130859 C226.58388916 15.37305176 227.86626465 15.40479492 229.1875 15.4375 C252.03598893 16.09079995 274.79298255 17.65709229 297.55493164 19.69519043 C310.35363885 20.83816277 323.15642232 21.67485355 335.98779297 22.35351562 C341.61270125 22.65457048 347.184746 22.97186941 352.76831055 23.75439453 C358.07619999 24.3385469 363.42946029 24.491687 368.76156616 24.75881958 C384.68422338 25.56279794 400.57217314 26.66580166 416.46313477 27.94677734 C418.00014909 28.07015742 419.53717688 28.19336987 421.07421875 28.31640625 C422.1864959 28.40580475 422.1864959 28.40580475 423.32124329 28.49700928 C429.30011963 28.96776565 435.28262351 29.33273376 441.27262878 29.629776 C445.5643436 29.85725229 449.74989026 30.37826788 454 31 C455.72219108 31.12198068 457.4465349 31.21782334 459.171875 31.28125 C460.08324219 31.31863281 460.99460937 31.35601562 461.93359375 31.39453125 C463.82680113 31.46542806 465.72003082 31.53573101 467.61328125 31.60546875 C468.51949219 31.64285156 469.42570312 31.68023437 470.359375 31.71875 C471.17889648 31.74904297 471.99841797 31.77933594 472.84277344 31.81054688 C475 32 475 32 478 33 C479.83463474 33.12764706 481.67317973 33.20190454 483.51171875 33.24609375 C484.64496582 33.27751465 485.77821289 33.30893555 486.94580078 33.34130859 C488.18056152 33.37305176 489.41532227 33.40479492 490.6875 33.4375 C513.32350599 34.12943031 535.86861837 35.66661299 558.41989136 37.69519043 C571.69140343 38.88356714 584.9686711 39.69434199 598.27636719 40.35351562 C599.00243668 40.39028412 599.72850616 40.42705261 600.47657776 40.4649353 C602.43174481 40.56315517 604.38713058 40.656994 606.3425293 40.75048828 C608.93935491 40.92764306 611.45930721 41.16309662 614.03442383 41.49780273 C617.65631472 41.95647598 621.23153314 42.25390891 624.875 42.46484375 C626.1736499 42.54154297 627.4722998 42.61824219 628.81030273 42.69726562 C629.49212616 42.73634033 630.17394958 42.77541504 630.87643433 42.81567383 C633.04937098 42.94033235 635.22208752 43.06834721 637.39477539 43.19726562 C640.42605491 43.37703337 643.45738719 43.55586133 646.48876953 43.73388672 C663.54111717 44.73755773 680.59125856 45.77666099 697.625 47.0625 C698.69161865 47.14177734 699.7582373 47.22105469 700.85717773 47.30273438 C708.3308653 47.88283634 708.3308653 47.88283634 712.01171875 48.52734375 C717.69073042 49.42559265 723.46962651 49.40512917 729.20898438 49.60546875 C730.16482422 49.64285156 731.12066406 49.68023437 732.10546875 49.71875 C732.97324951 49.74904297 733.84103027 49.77933594 734.73510742 49.81054688 C737 50 737 50 740 51 C741.83463474 51.12764706 743.67317973 51.20190454 745.51171875 51.24609375 C746.64504639 51.27751465 747.77837402 51.30893555 748.94604492 51.34130859 C750.79806519 51.38892334 750.79806519 51.38892334 752.6875 51.4375 C775.13505098 52.12405515 797.49075463 53.61552867 819.84841919 55.69519043 C832.95883261 56.90859921 846.07595475 57.70399389 859.22558594 58.35351562 C859.95407745 58.39028412 860.68256897 58.42705261 861.43313599 58.4649353 C863.39749095 58.56322849 865.3620691 58.65703281 867.32666016 58.75048828 C869.93526104 58.92767757 872.46768382 59.1628466 875.0546875 59.49780273 C878.57306299 59.94565536 882.04710509 60.24962668 885.5859375 60.46484375 C886.82907715 60.54154297 888.0722168 60.61824219 889.35302734 60.69726562 C890.6936831 60.7773738 892.0343407 60.85745106 893.375 60.9375 C894.7872847 61.0238833 896.1995566 61.11047624 897.61181641 61.19726562 C904.99031022 61.64851646 912.36982375 62.0811447 919.75 62.50390625 C933.09032827 63.26920411 946.42542628 64.05142124 959.75 65.0625 C960.80880371 65.14177734 961.86760742 65.22105469 962.95849609 65.30273438 C966.67540227 65.59425643 970.33016814 65.88240923 974.00390625 66.52734375 C979.68605484 67.42374529 985.46677546 67.40502965 991.20898438 67.60546875 C992.16482422 67.64285156 993.12066406 67.68023437 994.10546875 67.71875 C994.97324951 67.74904297 995.84103027 67.77933594 996.73510742 67.81054688 C999 68 999 68 1002 69 C1003.76163896 69.12725036 1005.52729556 69.20179157 1007.29296875 69.24609375 C1008.92516357 69.2932251 1008.92516357 69.2932251 1010.59033203 69.34130859 C1012.37093018 69.38892334 1012.37093018 69.38892334 1014.1875 69.4375 C1036.44476615 70.14394257 1058.6124373 71.62806011 1080.78076172 73.69519043 C1094.12747946 74.93217678 1107.48225997 75.71252733 1120.86987305 76.35351562 C1121.99704491 76.40866837 1121.99704491 76.40866837 1123.14698792 76.4649353 C1125.17612699 76.56332143 1127.20548888 76.65708188 1129.23486328 76.75048828 C1131.88501327 76.92611098 1134.45450672 77.15863297 1137.08203125 77.49780273 C1140.51798339 77.93821609 1143.91152201 78.2462222 1147.3671875 78.46484375 C1148.56504883 78.54154297 1149.76291016 78.61824219 1150.99707031 78.69726562 C1152.27678711 78.77654297 1153.55650391 78.85582031 1154.875 78.9375 C1156.24056905 79.02394405 1157.60612875 79.11053588 1158.97167969 79.19726562 C1167.63233706 79.74391045 1176.29500614 80.25304254 1184.95849609 80.75244141 C1197.06137486 81.4501752 1209.15879281 82.18109109 1221.25 83.0625 C1222.35633789 83.14177734 1223.46267578 83.22105469 1224.60253906 83.30273438 C1232.29968907 83.87971759 1232.29968907 83.87971759 1236.0703125 84.52734375 C1241.48957553 85.40165152 1246.99750343 85.40281862 1252.4765625 85.60546875 C1253.3840625 85.64285156 1254.2915625 85.68023437 1255.2265625 85.71875 C1256.04721191 85.74904297 1256.86786133 85.77933594 1257.71337891 85.81054688 C1260 86 1260 86 1261.81678772 86.49645996 C1264.32584579 87.07515366 1266.64352582 87.17875973 1269.21801758 87.24609375 C1270.26495285 87.27759521 1271.31188812 87.30909668 1272.39054871 87.34155273 C1273.52623795 87.37321533 1274.66192719 87.40487793 1275.83203125 87.4375 C1289.84690091 87.89329701 1303.81773295 88.75378551 1317.80493164 89.72949219 C1321.7504844 90.00438827 1325.6964776 90.27215537 1329.64257812 90.5390625 C1332.18231969 90.71313332 1334.72203434 90.88759731 1337.26171875 91.0625 C1339.00856209 91.18129517 1339.00856209 91.18129517 1340.79069519 91.30249023 C1345.30007925 91.61912331 1349.79227897 91.93580653 1354.27490234 92.52734375 C1358.30064419 93.03814701 1362.28945728 93.30000476 1366.33984375 93.5 C1367.48943321 93.5609082 1367.48943321 93.5609082 1368.6622467 93.62304688 C1371.08719847 93.75141079 1373.5123143 93.87614014 1375.9375 94 C1393.80757375 94.91467337 1393.80757375 94.91467337 1399.03515625 95.53515625 C1403.52821977 96.06192921 1407.98245885 96.26504469 1412.5 96.4375 C1420.98829988 96.8038584 1429.43475575 97.4078586 1437.8996582 98.12646484 C1445.46517791 98.75222308 1453.03368879 99.27601601 1460.609375 99.76171875 C1461.63813248 99.82772278 1462.66688995 99.89372681 1463.7268219 99.96173096 C1468.94575124 100.29510789 1474.164974 100.62323173 1479.38452148 100.94677734 C1481.33317374 101.06993694 1483.28182296 101.19314453 1485.23046875 101.31640625 C1486.12638733 101.3705217 1487.02230591 101.42463715 1487.94537354 101.48039246 C1492.36398095 101.76211983 1496.63431631 102.23281037 1501 103 C1502.66593538 103.12477231 1504.3344534 103.2193147 1506.00390625 103.28125 C1506.90947266 103.31863281 1507.81503906 103.35601562 1508.74804688 103.39453125 C1510.62824974 103.46498993 1512.5084581 103.53530182 1514.38867188 103.60546875 C1515.74508789 103.66154297 1515.74508789 103.66154297 1517.12890625 103.71875 C1517.94431885 103.74904297 1518.75973145 103.77933594 1519.59985352 103.81054688 C1522 104 1522 104 1524.34179688 104.49072266 C1527.7035284 105.13478694 1530.98246641 105.27504811 1534.40234375 105.4296875 C1535.92643565 105.50196368 1537.45052402 105.57431437 1538.97460938 105.64672852 C1540.18540161 105.70221359 1540.18540161 105.70221359 1541.4206543 105.75881958 C1557.95808274 106.52220582 1574.48000776 107.48932205 1591 108.5625 C1592.00167206 108.62653015 1593.00334412 108.6905603 1594.03536987 108.75653076 C1596.89879211 108.94005592 1599.76192723 109.12751563 1602.625 109.31640625 C1603.47135513 109.3705217 1604.31771027 109.42463715 1605.18971252 109.48039246 C1609.83673317 109.79335333 1614.38754624 110.33651012 1619 111 C1621.48767815 111.18300664 1623.97767085 111.33616319 1626.46875 111.46484375 C1627.17364059 111.50235245 1627.87853119 111.53986115 1628.6047821 111.57850647 C1630.11677539 111.65881934 1631.62883777 111.73783999 1633.14096069 111.81567383 C1637.1842259 112.02447727 1641.22685248 112.24502251 1645.26953125 112.46484375 C1646.08964188 112.50926605 1646.9097525 112.55368835 1647.75471497 112.59945679 C1665.32421709 113.55704427 1682.88021075 114.70182446 1700.4140625 116.17749023 C1707.79502189 116.78222779 1715.17994305 117.28345634 1722.5703125 117.7578125 C1724.11714973 117.85718864 1724.11714973 117.85718864 1725.69523621 117.95857239 C1730.92549881 118.29324908 1736.15604275 118.62279068 1741.38696289 118.94702148 C1743.33480107 119.07010394 1745.28263648 119.19323032 1747.23046875 119.31640625 C1748.12633698 119.37051666 1749.0222052 119.42462708 1749.94522095 119.4803772 C1754.36387932 119.76211741 1758.63426512 120.23280138 1763 121 C1764.66593538 121.12477231 1766.3344534 121.2193147 1768.00390625 121.28125 C1768.90947266 121.31863281 1769.81503906 121.35601562 1770.74804688 121.39453125 C1772.62824974 121.46498993 1774.5084581 121.53530182 1776.38867188 121.60546875 C1777.74508789 121.66154297 1777.74508789 121.66154297 1779.12890625 121.71875 C1779.94431885 121.74904297 1780.75973145 121.77933594 1781.59985352 121.81054688 C1784 122 1784 122 1786.33959961 122.49072266 C1789.6973014 123.13348359 1793.03062374 123.28504307 1796.4375 123.4296875 C1797.96671986 123.50194225 1799.49593513 123.57429401 1801.02514648 123.64672852 C1801.83442596 123.68371857 1802.64370544 123.72070862 1803.47750854 123.75881958 C1819.80965034 124.51104218 1836.12450485 125.47458866 1852.4375 126.5625 C1853.41098389 126.62653015 1854.38446777 126.6905603 1855.38745117 126.75653076 C1858.17386282 126.94033769 1860.96001215 127.12766887 1863.74609375 127.31640625 C1864.56540878 127.3705217 1865.38472382 127.42463715 1866.22886658 127.48039246 C1869.88076513 127.73270441 1873.50464735 128.04057643 1877.13500977 128.51367188 C1880.79525097 128.97423662 1884.41129243 129.25922812 1888.09375 129.46484375 C1888.7500087 129.50235245 1889.4062674 129.53986115 1890.08241272 129.57850647 C1891.48962047 129.65870372 1892.89689533 129.73773076 1894.30422974 129.81567383 C1897.31932688 129.98295806 1900.33402873 130.15691564 1903.34877014 130.33047485 C1904.91152894 130.42041149 1906.47430377 130.51006995 1908.03709412 130.59945679 C1915.88000709 131.0482695 1923.72175908 131.5147133 1931.5625 132 C1932.23304413 132.0414917 1932.90358826 132.0829834 1933.5944519 132.12573242 C1942.87068123 132.70353222 1952.13118904 133.39198454 1961.3918457 134.17749023 C1968.86441682 134.79231827 1976.34122301 135.28878003 1983.82421875 135.7578125 C1984.87996597 135.82406326 1985.9357132 135.89031403 1987.02345276 135.95857239 C1992.38842858 136.29378359 1997.75370256 136.6233221 2003.11938477 136.94702148 C2005.11605156 137.07009487 2007.11271511 137.19322088 2009.109375 137.31640625 C2010.03227829 137.37051666 2010.95518158 137.42462708 2011.90605164 137.4803772 C2016.03457899 137.73747285 2019.94976036 138.12663901 2024 139 C2025.70604248 139.12888327 2027.41514762 139.22127757 2029.125 139.28125 C2030.07890625 139.31863281 2031.0328125 139.35601562 2032.015625 139.39453125 C2033.00046875 139.42933594 2033.9853125 139.46414062 2035 139.5 C2036.95846773 139.56921286 2038.91681275 139.64201023 2040.875 139.71875 C2041.73867187 139.74904297 2042.60234375 139.77933594 2043.4921875 139.81054688 C2046 140 2046 140 2048.33447266 140.48951721 C2050.97151514 140.99454478 2053.47647377 141.21978206 2056.15625 141.35717773 C2057.16434219 141.41077957 2058.17243439 141.46438141 2059.21107483 141.51960754 C2060.29642014 141.57372299 2061.38176544 141.62783844 2062.5 141.68359375 C2064.20481789 141.77328682 2064.20481789 141.77328682 2065.94407654 141.86479187 C2068.37327596 141.9924736 2070.80255472 142.11865317 2073.23190308 142.24346924 C2079.50012559 142.56623906 2085.7676501 142.90192585 2092.03515625 143.23828125 C2093.2582399 143.30380188 2094.48132355 143.36932251 2095.74147034 143.43682861 C2104.97820479 143.93553427 2114.20951914 144.48472433 2123.4375 145.125 C2124.53900391 145.20032959 2125.64050781 145.27565918 2126.77539062 145.35327148 C2131.44675599 145.68753129 2136.0601244 146.13423023 2140.70385742 146.75 C2145.72592271 147.29679371 2150.77736892 147.52582288 2155.81958008 147.81567383 C2157.98729639 147.94036437 2160.1547927 148.06841728 2162.32226562 148.19726562 C2167.61479854 148.51123127 2172.90764333 148.81979194 2178.20050049 149.12823486 C2183.13383953 149.41594222 2188.06703942 149.70587007 2193 150 C2193.6959024 150.0414917 2194.39180481 150.0829834 2195.10879517 150.12573242 C2204.56444092 150.69315623 2214.00396028 151.37350676 2223.44238281 152.17749023 C2230.89675104 152.79391374 2238.35528619 153.28999845 2245.8203125 153.7578125 C2246.87630646 153.82406326 2247.93230042 153.89031403 2249.02029419 153.95857239 C2254.38640576 154.2937548 2259.75281723 154.62325082 2265.11962891 154.94702148 C2267.11621436 155.07009416 2269.11279654 155.19322013 2271.109375 155.31640625 C2272.03227325 155.37051666 2272.95517151 155.42462708 2273.90603638 155.4803772 C2278.0345692 155.73747169 2281.94975515 156.12663789 2286 157 C2287.70604248 157.12888327 2289.41514762 157.22127757 2291.125 157.28125 C2292.07890625 157.31863281 2293.0328125 157.35601562 2294.015625 157.39453125 C2295.00046875 157.42933594 2295.9853125 157.46414062 2297 157.5 C2298.95846773 157.56921286 2300.91681275 157.64201023 2302.875 157.71875 C2303.73867187 157.74904297 2304.60234375 157.77933594 2305.4921875 157.81054688 C2308 158 2308 158 2310.34693909 158.48951721 C2312.91375368 158.98340511 2315.34877693 159.21732526 2317.95678711 159.35717773 C2318.92166046 159.41077957 2319.88653381 159.46438141 2320.88064575 159.51960754 C2321.91905609 159.57372299 2322.95746643 159.62783844 2324.02734375 159.68359375 C2325.11667206 159.74338913 2326.20600037 159.80318451 2327.32833862 159.86479187 C2329.65872269 159.99249732 2331.98919086 160.11867562 2334.31973267 160.24346924 C2340.35162349 160.56697605 2346.38281732 160.90298612 2352.4140625 161.23828125 C2353.59678238 161.30380188 2354.77950226 161.36932251 2355.99806213 161.43682861 C2365.27279072 161.95301136 2374.5438863 162.5089392 2383.8125 163.125 C2385.54777954 163.23799438 2385.54777954 163.23799438 2387.31811523 163.35327148 C2391.61767356 163.64476141 2395.89232745 163.95247475 2400.1640625 164.52734375 C2404.63493709 165.07823563 2409.06420803 165.2679556 2413.5625 165.4375 C2421.54851004 165.7963814 2429.5271789 166.22769494 2437.5 166.8125 C2438.95901733 166.89939087 2438.95901733 166.89939087 2440.44750977 166.98803711 C2445.81167993 167.41193462 2449.1030233 167.92964087 2453 172 C2452.85546875 173.75 2452.85546875 173.75 2452 176 C2388.48314613 227.56196321 2285.62595538 238.17701309 2206.92260742 240.70996094 C2203.1514065 240.47659764 2203.1514065 240.47659764 2200 242 C2197.05290585 242.10059769 2194.12920859 242.1361505 2191.18164062 242.12939453 C2189.79394722 242.13202301 2189.79394722 242.13202301 2188.3782196 242.13470459 C2185.30421095 242.13912467 2182.2302593 242.13618457 2179.15625 242.1328125 C2177.03015125 242.13348549 2174.90405258 242.13445548 2172.7779541 242.13571167 C2168.3156664 242.13718886 2163.85339867 242.13503342 2159.39111328 242.13037109 C2153.65729431 242.1246738 2147.92352215 242.12795269 2142.1897049 242.13394356 C2137.79754277 242.13754861 2133.40539183 242.13641084 2129.01322937 242.13381577 C2126.89841201 242.13314634 2124.78359366 242.13397545 2122.66877747 242.13629532 C2119.71861054 242.13882093 2116.76852054 242.13498254 2113.81835938 242.12939453 C2112.49362862 242.13243088 2112.49362862 242.13243088 2111.14213562 242.13552856 C2105.11426234 242.11426234 2105.11426234 242.11426234 2104 241 C2101.60727466 240.82766968 2099.23628625 240.71641015 2096.83984375 240.640625 C2095.26949323 240.57999706 2093.69918224 240.51833898 2092.12890625 240.45581055 C2091.28602051 240.42305023 2090.44313477 240.39028992 2089.57470703 240.35653687 C2055.43271067 238.97728176 2021.44995051 235.32621137 1987.76416016 229.62060547 C1983.81018278 228.96870441 1979.85118775 228.36887038 1975.88671875 227.78515625 C1928.1792664 220.73230282 1881.88113254 206.94673188 1835.584198 193.73321533 C1792.2166155 181.35593873 1748.96892757 169.72920852 1704.74819946 160.78755188 C1698.25898589 159.47193443 1691.78252328 158.1060343 1685.3125 156.69921875 C1663.63532953 151.97410099 1663.63532953 151.97410099 1641.67944336 148.83422852 C1637.40265963 148.38199305 1633.98030276 147.72238556 1630 146 C1627.17555167 145.9984452 1627.17555167 145.9984452 1624.35546875 146.125 C1622 146 1622 146 1618.5078125 145.06640625 C1612.97964165 143.60875172 1607.37273868 143.33350391 1601.6875 142.9375 C1599.54532867 142.78330444 1597.4033851 142.62590132 1595.26171875 142.46484375 C1594.32287842 142.399021 1593.38403809 142.33319824 1592.41674805 142.26538086 C1590 142 1590 142 1587 141 C1583.74453977 140.723593 1580.48885779 140.55514519 1577.2265625 140.37890625 C1573.86808863 140.13600955 1570.59758943 139.61892866 1567.27734375 139.0625 C1558.2136303 137.62297671 1549.08483194 137.07812636 1539.9375 136.4375 C1537.28395526 136.2497003 1534.63055966 136.06032448 1531.97743225 135.86671448 C1530.34050901 135.74741338 1528.70333642 135.63147101 1527.06590271 135.51939392 C1521.44809439 135.11220422 1521.44809439 135.11220422 1518.98426819 134.49525452 C1515.72049952 133.68064882 1512.37903171 133.6571482 1509.03125 133.5 C1508.22515793 133.45962112 1507.41906586 133.41924225 1506.58854675 133.37763977 C1503.89261534 133.24564013 1501.19641622 133.1216815 1498.5 133 C1497.55774567 132.95708832 1496.61549133 132.91417664 1495.64468384 132.8699646 C1461.45366357 131.33807494 1427.28340067 130.72034966 1393.0625 131.375 C1391.94886078 131.39623932 1390.83522156 131.41747864 1389.68783569 131.43936157 C1368.64055235 131.86075699 1347.75241081 132.7370625 1326.8125 134.9375 C1325.13351458 135.10922367 1323.45447796 135.28044757 1321.77539062 135.45117188 C1317.65988197 135.87157088 1313.54580947 136.30439109 1309.43218994 136.74285889 C1306.97925788 137.00219294 1304.52559128 137.25355751 1302.07177734 137.50439453 C1291.98152829 138.55206682 1291.98152829 138.55206682 1282.04199219 140.54003906 C1277.7942807 141.49684065 1273.44596424 141.87866084 1269.125 142.375 C1260.28553628 143.43021227 1251.48656542 144.65004149 1242.6875 146 C1232.15709394 147.60995764 1221.61818563 148.90010194 1211.01831055 149.9609375 C1205.54664499 150.52510463 1200.28431871 151.29042325 1194.93505859 152.57177734 C1192.33818947 153.14645668 1189.77742841 153.34972077 1187.125 153.5 C1183.28396053 153.71886265 1179.59983409 154.23135512 1175.82421875 154.94140625 C1170.13328825 156.00821523 1164.43562652 156.75609513 1158.6875 157.4375 C1150.69686575 158.40679651 1142.72062237 159.44084067 1134.75 160.5625 C1126.80644856 161.67615546 1118.86269049 162.58287637 1110.87011719 163.26586914 C1106.8677482 163.62696911 1103.00006243 164.16467673 1099.06640625 164.99609375 C1093.95862424 166.06759071 1088.88431722 166.57895254 1083.6875 167 C1078.06601793 167.46168826 1072.5241577 168.04977667 1066.95703125 168.96875 C1057.90359014 170.40972213 1048.78208962 170.98902065 1039.64746094 171.67724609 C1037.32714712 171.85376017 1035.00734311 172.0361686 1032.6875 172.21875 C1032.00792236 172.26777466 1031.32834473 172.31679932 1030.62817383 172.36730957 C1026.31489505 172.70748079 1022.08143157 173.28353559 1017.80908203 173.97045898 C1011.013058 175.04475407 1004.22223365 175.69211538 997.3671875 176.25390625 C996.12752228 176.35968491 994.88785706 176.46546356 993.61062622 176.57444763 C989.69909063 176.90797161 985.78711492 177.23584661 981.875 177.5625 C977.9271865 177.89271706 973.97954789 178.22484313 970.03225708 178.56126404 C967.58746642 178.76959515 965.14238234 178.97451717 962.69699097 179.17567444 C961.59799469 179.26924728 960.49899841 179.36282013 959.36669922 179.45922852 C958.39997284 179.53979996 957.43324646 179.6203714 956.43722534 179.7033844 C953.86501657 179.93427202 953.86501657 179.93427202 951 181 C949.65262281 181.11279068 948.30090092 181.17773562 946.94921875 181.2109375 C945.70507202 181.25057617 945.70507202 181.25057617 944.43579102 181.29101562 C943.52885498 181.31873047 942.62191895 181.34644531 941.6875 181.375 C932.10722476 181.73341519 922.5959242 182.52613913 913.0625 183.5 C911.77754639 183.63067871 910.49259277 183.76135742 909.16870117 183.89599609 C902.35152333 184.60349073 902.35152333 184.60349073 895.56005859 185.51806641 C891.88459608 186.0156225 888.27091262 186.25596152 884.56640625 186.4296875 C883.11448519 186.50169727 881.66258158 186.57405954 880.21069336 186.64672852 C879.07517532 186.70221359 879.07517532 186.70221359 877.91671753 186.75881958 C865.05269503 187.39365791 852.25184092 188.26720746 839.4375 189.5625 C828.77865669 190.63463261 818.18064396 191.34338558 807.47314453 191.65649414 C797.74219135 191.94431107 788.03120224 192.44579541 778.3125 193 C777.5544809 193.04206573 776.79646179 193.08413147 776.01547241 193.12747192 C773.83955281 193.2485588 771.66389767 193.3735939 769.48828125 193.5 C768.23571533 193.5721875 766.98314941 193.644375 765.69262695 193.71875 C763.28335108 193.90225319 760.87807782 194.15521001 758.48461914 194.48632812 C751.94706803 195.33741978 745.33963735 195.45159922 738.7578125 195.71875 C737.2653571 195.78186536 735.77291548 195.84530753 734.28048706 195.90905762 C730.35847204 196.07587338 726.4363121 196.23897551 722.51409912 196.40106201 C716.27485457 196.65944321 710.03583738 196.92322858 703.79684067 197.18751526 C701.64937015 197.27792175 699.50183368 197.36658522 697.35427856 197.45495605 C695.9863398 197.51208118 694.61840962 197.5694123 693.25048828 197.62695312 C692.57162504 197.65521494 691.8927618 197.68347675 691.19332695 197.71259499 C687.74720919 197.8613409 684.30553256 198.03738882 680.86352539 198.26266479 C667.71455524 199.1128432 654.59495939 199.14577671 641.421875 199.1328125 C638.96030671 199.13348893 636.49873848 199.13446175 634.03717041 199.13571167 C628.89017091 199.13717824 623.74318886 199.1350715 618.59619141 199.13037109 C612.11969083 199.12473384 605.64323186 199.12802065 599.16673279 199.13380432 C525.49213793 199.18991239 525.49213793 199.18991239 493.5 196.75 C491.75024571 196.62229301 490.00048978 196.4946084 488.25073242 196.36694336 C458.19189082 194.13018556 428.1008813 191.54468079 398.1875 187.8125 C396.94460205 187.65789307 395.7017041 187.50328613 394.42114258 187.34399414 C389.71635666 186.72939747 385.08263279 186.07497367 380.46484375 184.9765625 C376.00246781 183.92293895 371.54005303 183.45268945 366.9855957 182.96264648 C326.15206966 178.4372459 285.60575197 168.72700193 246 158 C245.13155457 157.76559204 244.26310913 157.53118408 243.36834717 157.28967285 C218.36520745 150.51874835 194.1058129 142.42886259 170.05267334 132.81958008 C168.06985831 132.02789264 166.08528196 131.24080273 164.10009766 130.45507812 C156.3650562 127.3851157 148.66541543 124.2398881 141 121 C140.10087891 120.62069336 139.20175781 120.24138672 138.27539062 119.85058594 C125.57085307 114.44186496 113.51888122 108.08620661 101.46826172 101.35888672 C98.68677127 99.8275538 95.87275429 98.37161823 93.04663086 96.92504883 C83.5393336 92.0299341 74.78330338 86.07815099 66 80 C65.24299805 79.47792969 64.48599609 78.95585938 63.70605469 78.41796875 C50.5562105 69.32421121 38.51740193 59.70923377 26.9296875 48.68359375 C23.62278584 45.55117581 20.2201917 42.54682141 16.78125 39.56079102 C6.19650396 30.28608139 -4.57642496 18.64054387 -11 6 C-10.8515625 3.765625 -10.8515625 3.765625 -10 2 C-6.20214933 -1.0593797 -4.57090588 -0.97706152 0 0 Z " fill="#F0C3CB" transform="translate(11,1)"/>
</svg>
